<svg width="16" height="16" viewBox="0 0 16 16" fill="none" xmlns="http://www.w3.org/2000/svg">
<path d="M7.99994 1.49756C6.41692 1.49762 4.88558 2.06097 3.67991 3.08679C2.47425 4.11261 1.67294 5.53397 1.41936 7.09655C1.16578 8.65912 1.47648 10.2609 2.29587 11.6154C3.11526 12.9698 4.38986 13.9885 5.89162 14.4892C6.22495 14.5476 6.34995 14.3476 6.34995 14.1726C6.34995 14.0142 6.34161 13.4892 6.34161 12.9309C4.6666 13.2392 4.23327 12.5226 4.09994 12.1476C3.95199 11.7829 3.71745 11.4597 3.4166 11.2059C3.18327 11.0809 2.84994 10.7726 3.40826 10.7642C3.62146 10.7874 3.82593 10.8616 4.00436 10.9805C4.18279 11.0995 4.32991 11.2597 4.43327 11.4476C4.52445 11.6114 4.64706 11.7555 4.79406 11.8719C4.94107 11.9882 5.10959 12.0744 5.28996 12.1255C5.47033 12.1766 5.65901 12.1916 5.84519 12.1696C6.03137 12.1477 6.21138 12.0892 6.37492 11.9976C6.40378 11.6586 6.55483 11.3418 6.79994 11.1059C5.3166 10.9392 3.7666 10.3642 3.7666 7.81424C3.75724 7.15168 4.00173 6.51063 4.44994 6.02258C4.24612 5.44672 4.26997 4.81477 4.5166 4.25591C4.5166 4.25591 5.07492 4.08091 6.34994 4.93925C7.4408 4.63923 8.59241 4.63923 9.68327 4.93925C10.9583 4.07258 11.5166 4.25591 11.5166 4.25591C11.7633 4.81476 11.7871 5.44673 11.5833 6.02258C12.0328 6.50979 12.2775 7.1514 12.2666 7.81424C12.2666 10.3726 10.7083 10.9392 9.22494 11.1059C9.38404 11.2672 9.50657 11.4608 9.58422 11.6736C9.66186 11.8864 9.6928 12.1134 9.67494 12.3392C9.67494 13.2309 9.6666 13.9476 9.6666 14.1726C9.6666 14.3476 9.7916 14.5559 10.1249 14.4892C11.624 13.9845 12.895 12.9634 13.7109 11.6083C14.5268 10.2531 14.8345 8.65211 14.5792 7.09105C14.3239 5.52999 13.5221 4.11047 12.3169 3.0859C11.1118 2.06133 9.58174 1.49838 7.99994 1.49756Z" fill="#292F36"/>
</svg>
